<svg width="96" height="96" viewBox="0 0 96 96" fill="none" xmlns="http://www.w3.org/2000/svg">
<g clip-path="url(#clip0_3_18)">
<path d="M84.9655 0H11.0345C4.94031 0 0 5.45137 0 12.176V93.7551C0 100.48 4.94031 105.931 11.0345 105.931H84.9655C91.0597 105.931 96 100.48 96 93.7551V12.176C96 5.45137 91.0597 0 84.9655 0Z" fill="#BB86FC"/>
<path d="M43.7143 72.5892C54.0337 72.5892 58.7918 65.174 58.7918 56.1522V25.6882H47.7308V55.2871C47.7308 61.2811 45.8152 63.0731 42.2312 63.0731C40.0067 63.0731 37.6585 61.6518 36.0519 58.5004L28.575 64.1235C31.85 69.8085 36.5463 72.5892 43.7143 72.5892Z" fill="white"/>
</g>
<defs>
<clipPath id="clip0_3_18">
<rect width="96" height="96" rx="10" fill="white"/>
</clipPath>
</defs>
</svg>
