<svg width="167" height="52" viewBox="0 0 167 52" fill="none" xmlns="http://www.w3.org/2000/svg">
<path d="M79.176 17.968C79.608 17.968 79.984 18.016 80.304 18.112C80.64 18.208 80.824 18.352 80.856 18.544C80.856 18.944 80.536 20.488 79.896 23.176C79.256 25.864 78.664 28.248 78.12 30.328C77.816 31.48 77.224 32.432 76.344 33.184C75.48 33.92 74.336 34.288 72.912 34.288C71.744 34.288 70.816 34.072 70.128 33.64C69.456 33.192 68.992 32.664 68.736 32.056C68.464 31.448 68.328 30.848 68.328 30.256C68.328 29.328 68.448 28.656 68.688 28.24C68.912 27.808 69.312 27.592 69.888 27.592C70.448 27.592 70.888 27.672 71.208 27.832C71.528 27.976 71.688 28.168 71.688 28.408C71.688 28.568 71.56 28.824 71.304 29.176C71.032 29.544 70.896 29.808 70.896 29.968C70.912 30.72 71.08 31.24 71.4 31.528C71.736 31.816 72.2 31.96 72.792 31.96C73.208 31.96 73.608 31.792 73.992 31.456C74.392 31.12 74.712 30.504 74.952 29.608L77.28 20.608C76.24 20.784 75.384 20.944 74.712 21.088C74.392 20.976 74.144 20.808 73.968 20.584C73.808 20.344 73.728 20.064 73.728 19.744C73.728 19.28 74.04 18.912 74.664 18.64C75.928 18.384 76.848 18.216 77.424 18.136C78 18.04 78.584 17.984 79.176 17.968ZM83.49 33.184C83.49 33.008 83.514 32.84 83.562 32.68L86.298 22.072C85.834 22.424 85.306 22.768 84.714 23.104C84.138 23.424 83.762 23.584 83.586 23.584C83.362 23.584 83.106 23.512 82.818 23.368C82.546 23.224 82.306 23.056 82.098 22.864C81.906 22.672 81.81 22.512 81.81 22.384C81.81 22.336 81.818 22.304 81.834 22.288C81.994 22.08 82.41 21.736 83.082 21.256C83.77 20.76 84.658 20.152 85.746 19.432C86.802 18.728 87.426 18.304 87.618 18.16C87.762 18.064 87.922 18.016 88.098 18.016C88.466 18.016 88.81 18.168 89.13 18.472C89.466 18.776 89.634 19.128 89.634 19.528C89.634 19.544 89.642 19.592 89.658 19.672C89.69 19.736 89.706 19.824 89.706 19.936C89.706 19.968 89.69 20.08 89.658 20.272C89.418 21.6 88.986 23.496 88.362 25.96C87.754 28.408 87.41 29.808 87.33 30.16C86.978 31.504 86.778 32.296 86.73 32.536C86.602 33.096 86.402 33.528 86.13 33.832C85.874 34.136 85.45 34.288 84.858 34.288C84.378 34.288 84.026 34.208 83.802 34.048C83.594 33.888 83.49 33.6 83.49 33.184ZM92.3631 23.032C92.3151 22.984 92.2911 22.928 92.2911 22.864C92.2911 22.704 92.4671 22.576 92.8191 22.48C93.1711 22.368 93.6591 22.312 94.2831 22.312C94.8431 22.312 95.2191 22.472 95.4111 22.792C95.6031 23.096 95.7231 23.496 95.7711 23.992C95.7391 24.12 95.7071 24.296 95.6751 24.52L95.5551 25.096C96.0191 24.552 96.7071 24.024 97.6191 23.512C98.5311 22.984 99.2431 22.72 99.7551 22.72C100.555 22.72 101.107 22.864 101.411 23.152C101.731 23.424 101.915 23.952 101.963 24.736C102.555 24.176 103.235 23.704 104.003 23.32C104.771 22.92 105.443 22.72 106.019 22.72C106.627 22.72 107.187 22.848 107.699 23.104C108.211 23.344 108.467 23.736 108.467 24.28C108.467 24.424 108.459 24.536 108.443 24.616C108.395 24.872 108.299 25.232 108.155 25.696C108.027 26.144 107.931 26.472 107.867 26.68C107.467 27.976 107.155 29.072 106.931 29.968C106.723 30.848 106.595 31.712 106.547 32.56L106.883 33.736C106.691 34.104 106.419 34.392 106.067 34.6C105.731 34.824 105.235 34.936 104.579 34.936C104.195 34.936 103.915 34.808 103.739 34.552C103.563 34.296 103.475 33.976 103.475 33.592C103.475 33.512 103.483 33.424 103.499 33.328C103.515 33.232 103.523 33.144 103.523 33.064C103.555 32.168 103.683 31.264 103.907 30.352C104.147 29.424 104.451 28.384 104.819 27.232C105.155 26.224 105.323 25.608 105.323 25.384C105.323 25.288 105.307 25.192 105.275 25.096C105.259 24.984 105.235 24.928 105.203 24.928C104.835 24.928 104.227 25.104 103.379 25.456C102.547 25.808 101.987 26.16 101.699 26.512C101.395 27.488 100.891 29.52 100.187 32.608L100.043 33.28C99.9631 33.696 99.8831 33.984 99.8031 34.144C99.7391 34.304 99.6031 34.424 99.3951 34.504C99.1871 34.584 98.8511 34.624 98.3871 34.624C97.2831 34.624 96.7311 34.4 96.7311 33.952C96.8591 33.6 97.2111 32.248 97.7871 29.896C98.1391 28.44 98.5391 26.832 98.9871 25.072C98.8911 25.12 98.7151 25.192 98.4591 25.288C97.6911 25.592 97.0191 25.904 96.4431 26.224C95.8831 26.544 95.4271 26.92 95.0751 27.352L94.4511 29.896C94.3551 30.28 94.2671 30.64 94.1871 30.976C94.1071 31.296 94.0351 31.568 93.9711 31.792C93.8911 32.064 93.8351 32.432 93.8031 32.896C93.7711 33.216 93.7231 33.448 93.6591 33.592C93.6111 33.736 93.4751 33.856 93.2511 33.952C93.0431 34.032 92.7071 34.072 92.2431 34.072C91.7151 34.072 91.3151 34.016 91.0431 33.904C90.7711 33.792 90.6351 33.552 90.6351 33.184C90.6351 33.008 90.8351 32.072 91.2351 30.376C91.6511 28.68 92.2111 26.472 92.9151 23.752L92.3631 23.032ZM112.201 19.744C112.201 19.248 112.353 18.808 112.657 18.424C112.977 18.04 113.417 17.848 113.977 17.848C114.569 17.848 115.081 18.032 115.513 18.4C115.961 18.768 116.185 19.184 116.185 19.648C116.185 20.112 115.961 20.512 115.513 20.848C115.065 21.184 114.545 21.352 113.953 21.352C113.377 21.352 112.937 21.208 112.633 20.92C112.345 20.616 112.201 20.224 112.201 19.744ZM114.721 23.992C113.873 27.448 113.225 30.048 112.777 31.792C112.713 32.048 112.681 32.328 112.681 32.632L112.705 33.304C112.705 33.576 112.617 33.768 112.441 33.88C112.281 33.992 111.929 34.056 111.385 34.072C110.857 34.072 110.457 34.016 110.185 33.904C109.913 33.792 109.777 33.552 109.777 33.184C109.777 33.008 109.977 32.072 110.377 30.376C110.793 28.68 111.353 26.472 112.057 23.752L111.505 23.032C111.457 22.984 111.433 22.928 111.433 22.864C111.433 22.704 111.609 22.576 111.961 22.48C112.313 22.368 112.801 22.312 113.425 22.312C113.969 22.312 114.313 22.472 114.457 22.792C114.617 23.096 114.705 23.496 114.721 23.992ZM118.57 22.36C119.354 21.96 119.978 21.76 120.442 21.76C120.986 21.76 121.29 22.04 121.354 22.6L120.562 25.552C120.898 25.088 121.394 24.632 122.05 24.184C122.706 23.736 123.362 23.368 124.018 23.08C124.69 22.792 125.226 22.648 125.626 22.648C126.474 22.648 127.09 22.808 127.474 23.128C127.858 23.432 128.05 23.92 128.05 24.592C127.89 25.488 127.65 26.568 127.33 27.832C127.01 29.08 126.81 29.872 126.73 30.208C126.378 31.52 126.13 32.504 125.986 33.16C125.89 33.56 125.794 33.84 125.698 34C125.618 34.144 125.466 34.248 125.242 34.312C125.034 34.376 124.666 34.408 124.138 34.408C123.85 34.408 123.578 34.36 123.322 34.264C123.082 34.168 122.962 34.008 122.962 33.784C123.01 33.256 123.17 32.448 123.442 31.36C123.73 30.256 124.114 28.832 124.594 27.088C124.914 26 125.074 25.408 125.074 25.312C125.074 25.088 124.946 24.976 124.69 24.976C124.322 24.976 123.77 25.232 123.034 25.744C122.298 26.24 121.538 27.08 120.754 28.264C119.97 29.432 119.354 30.96 118.906 32.848C118.874 32.944 118.834 33.12 118.786 33.376C118.738 33.632 118.61 33.816 118.402 33.928C118.194 34.024 117.858 34.072 117.394 34.072C116.866 34.072 116.474 34.016 116.218 33.904C115.978 33.792 115.858 33.552 115.858 33.184L116.122 32.152C117.066 28.456 117.882 25.192 118.57 22.36ZM131.099 34.792C130.651 34.792 130.259 34.656 129.923 34.384C129.603 34.112 129.443 33.792 129.443 33.424C129.443 32.88 129.675 32.408 130.139 32.008C130.603 31.608 131.107 31.408 131.651 31.408C132.131 31.408 132.523 31.56 132.827 31.864C133.147 32.168 133.307 32.528 133.307 32.944C133.307 33.44 133.083 33.872 132.635 34.24C132.187 34.608 131.675 34.792 131.099 34.792ZM139.925 16.144C140.037 15.632 140.221 15.256 140.477 15.016C140.749 14.76 141.045 14.632 141.365 14.632C141.749 14.632 142.093 14.768 142.397 15.04C142.717 15.312 142.885 15.632 142.901 16C142.901 16.096 142.885 16.224 142.853 16.384L138.629 33.52C138.389 34.192 138.061 34.528 137.645 34.528C137.309 34.528 137.005 34.32 136.733 33.904C136.477 33.488 136.349 33.016 136.349 32.488C136.349 32.28 136.373 32.072 136.421 31.864L139.925 16.144ZM147.705 34.24C146.297 34.24 145.201 33.76 144.417 32.8C143.633 31.84 143.241 30.616 143.241 29.128C143.241 27.88 143.505 26.736 144.033 25.696C144.577 24.656 145.329 23.84 146.289 23.248C147.265 22.64 148.377 22.336 149.625 22.336C151.017 22.336 151.953 22.456 152.433 22.696C152.577 22.76 152.705 22.864 152.817 23.008C152.929 23.136 152.985 23.264 152.985 23.392C152.985 23.552 152.945 23.72 152.865 23.896C152.801 24.072 152.697 24.208 152.553 24.304C152.921 24.336 153.233 24.52 153.489 24.856C153.745 25.176 153.937 25.552 154.065 25.984C154.193 26.416 154.257 26.792 154.257 27.112C154.257 28.248 153.977 29.368 153.417 30.472C152.873 31.576 152.105 32.48 151.113 33.184C150.121 33.888 148.985 34.24 147.705 34.24ZM148.065 32.248C148.577 32.248 149.097 32 149.625 31.504C150.169 30.992 150.617 30.32 150.969 29.488C151.321 28.656 151.497 27.784 151.497 26.872C151.497 26.696 151.433 26.536 151.305 26.392C151.193 26.248 151.033 26.096 150.825 25.936C150.713 25.856 150.609 25.776 150.513 25.696C150.433 25.6 150.393 25.512 150.393 25.432C150.393 25.368 150.409 25.28 150.441 25.168C150.489 25.056 150.513 24.976 150.513 24.928C150.513 24.688 150.217 24.568 149.625 24.568C148.969 24.568 148.361 24.832 147.801 25.36C147.257 25.888 146.825 26.56 146.505 27.376C146.201 28.192 146.049 28.992 146.049 29.776C146.049 30.24 146.153 30.664 146.361 31.048C146.569 31.416 146.825 31.712 147.129 31.936C147.449 32.144 147.761 32.248 148.065 32.248ZM157.901 39.448C157.165 39.448 156.469 39.288 155.813 38.968C155.173 38.648 154.637 38.232 154.205 37.72C153.757 37.224 153.437 36.72 153.245 36.208C153.261 35.92 153.405 35.632 153.677 35.344C153.933 35.072 154.389 34.936 155.045 34.936C155.253 34.936 155.429 35.016 155.573 35.176C155.733 35.336 155.909 35.592 156.101 35.944C156.357 36.424 156.621 36.792 156.893 37.048C157.181 37.32 157.573 37.456 158.069 37.456C158.629 37.456 159.165 37.232 159.677 36.784C160.205 36.352 160.653 35.76 161.021 35.008C161.405 34.256 161.669 33.424 161.813 32.512C161.461 32.992 161.053 33.36 160.589 33.616C160.141 33.872 159.717 34 159.317 34C158.037 34 157.021 33.72 156.269 33.16C155.533 32.584 155.165 31.568 155.165 30.112C155.165 28.8 155.525 27.576 156.245 26.44C156.981 25.304 157.957 24.4 159.173 23.728C160.389 23.056 161.693 22.72 163.085 22.72C163.997 22.72 164.669 22.904 165.101 23.272C165.549 23.64 165.821 24.104 165.917 24.664C166.189 24.792 166.333 24.92 166.349 25.048C166.349 25.096 166.317 25.264 166.253 25.552C165.949 26.864 165.309 29.456 164.333 33.328L164.069 34.384C163.669 35.936 162.901 37.168 161.765 38.08C160.645 38.992 159.357 39.448 157.901 39.448ZM163.325 25.192C163.197 24.968 163.069 24.824 162.941 24.76C162.829 24.696 162.653 24.664 162.413 24.664C161.661 24.664 160.933 24.912 160.229 25.408C159.525 25.888 158.957 26.52 158.525 27.304C158.093 28.072 157.877 28.864 157.877 29.68C157.877 30.272 157.981 30.784 158.189 31.216C158.413 31.648 158.765 31.896 159.245 31.96C159.885 31.848 160.485 31.56 161.045 31.096C161.621 30.632 162.013 30.032 162.221 29.296L163.325 25.192Z" fill="white"/>
<g clip-path="url(#clip0_24_95)">
<rect width="52" height="52" rx="10" fill="white"/>
<path d="M46.023 0H5.97701C2.676 0 0 2.676 0 5.97701V46.023C0 49.324 2.676 52 5.97701 52H46.023C49.324 52 52 49.324 52 46.023V5.97701C52 2.676 49.324 0 46.023 0Z" fill="#BB86FC"/>
<path d="M23.6785 39.3191C29.2682 39.3191 31.8455 35.3026 31.8455 30.4158V13.9144H25.8541V29.9472C25.8541 33.1939 24.8165 34.1645 22.8752 34.1645C21.6702 34.1645 20.3983 33.3947 19.5281 31.6877L15.478 34.7336C17.252 37.8129 19.7958 39.3191 23.6785 39.3191Z" fill="white"/>
</g>
<defs>
<clipPath id="clip0_24_95">
<rect width="52" height="52" rx="10" fill="white"/>
</clipPath>
</defs>
</svg>
