<svg width="64" height="64" viewBox="0 0 64 64" fill="none" xmlns="http://www.w3.org/2000/svg">
<g clip-path="url(#clip0_3_21)">
<path d="M56.6437 0H7.35632C3.29354 0 0 3.29354 0 7.35632V56.6437C0 60.7065 3.29354 64 7.35632 64H56.6437C60.7065 64 64 60.7065 64 56.6437V7.35632C64 3.29354 60.7065 0 56.6437 0Z" fill="#BB86FC"/>
<path d="M29.1428 48.3928C36.0224 48.3928 39.1945 43.4493 39.1945 37.4348V17.1255H31.8205V36.8581C31.8205 40.854 30.5434 42.0487 28.1541 42.0487C26.6711 42.0487 25.1057 41.1012 24.0346 39.0002L19.0499 42.749C21.2333 46.539 24.3641 48.3928 29.1428 48.3928Z" fill="white"/>
</g>
<defs>
<clipPath id="clip0_3_21">
<rect width="64" height="64" rx="10" fill="white"/>
</clipPath>
</defs>
</svg>
