<svg width="200" height="120" viewBox="0 0 200 120" fill="none" xmlns="http://www.w3.org/2000/svg">
<rect width="200" height="120" fill="#0D1117"/>
<path d="M62.6244 81.8373C63.0475 81.8373 63.4157 81.8844 63.7291 81.9788C64.0582 82.0731 64.2384 82.2146 64.2697 82.4032C64.2697 82.7963 63.9563 84.3134 63.3295 86.9546C62.7027 89.5958 62.1229 91.9383 61.5901 93.9821C61.2924 95.1141 60.7126 96.0495 59.8507 96.7884C59.0046 97.5116 57.8841 97.8732 56.4895 97.8732C55.3456 97.8732 54.4367 97.661 53.7629 97.2365C53.1047 96.7963 52.6503 96.2775 52.3996 95.6801C52.1332 95.0826 52 94.4931 52 93.9114C52 92.9995 52.1175 92.3392 52.3526 91.9305C52.572 91.506 52.9637 91.2938 53.5278 91.2938C54.0763 91.2938 54.5072 91.3724 54.8206 91.5296C55.134 91.6711 55.2907 91.8597 55.2907 92.0955C55.2907 92.2528 55.1654 92.5043 54.9146 92.8502C54.6483 93.2118 54.5151 93.4712 54.5151 93.6284C54.5307 94.3673 54.6953 94.8783 55.0087 95.1612C55.3377 95.4442 55.7922 95.5857 56.372 95.5857C56.7794 95.5857 57.1712 95.4207 57.5472 95.0905C57.939 94.7603 58.2524 94.1551 58.4874 93.2747L60.7675 84.4313C59.7489 84.6043 58.9105 84.7615 58.2524 84.903C57.939 84.7929 57.6961 84.6278 57.5237 84.4077C57.367 84.1719 57.2887 83.8968 57.2887 83.5824C57.2887 83.1264 57.5942 82.7648 58.2054 82.4976C59.4433 82.246 60.3444 82.0809 60.9085 82.0023C61.4726 81.908 62.0446 81.853 62.6244 81.8373ZM66.8494 96.7884C66.8494 96.6155 66.8729 96.4504 66.92 96.2932L69.5995 85.8698C69.1451 86.2157 68.628 86.5537 68.0482 86.8839C67.4841 87.1983 67.1158 87.3555 66.9435 87.3555C66.7241 87.3555 66.4734 87.2848 66.1913 87.1433C65.9249 87.0018 65.6898 86.8367 65.4861 86.648C65.2981 86.4594 65.2041 86.3022 65.2041 86.1764C65.2041 86.1292 65.2119 86.0978 65.2276 86.0821C65.3843 85.8777 65.7917 85.5397 66.4498 85.068C67.1237 84.5807 67.9934 83.9832 69.0589 83.2758C70.0932 82.584 70.7043 82.1674 70.8923 82.0259C71.0334 81.9316 71.1901 81.8844 71.3624 81.8844C71.7229 81.8844 72.0598 82.0338 72.3732 82.3325C72.7022 82.6312 72.8668 82.9771 72.8668 83.3701C72.8668 83.3858 72.8746 83.433 72.8903 83.5116C72.9216 83.5745 72.9373 83.661 72.9373 83.771C72.9373 83.8024 72.9216 83.9125 72.8903 84.1012C72.6552 85.406 72.2321 87.269 71.621 89.6902C71.0255 92.0956 70.6886 93.4712 70.6103 93.8171C70.2655 95.1377 70.0697 95.9159 70.0226 96.1517C69.8973 96.702 69.7014 97.1264 69.435 97.4251C69.1843 97.7239 68.769 97.8732 68.1892 97.8732C67.7191 97.8732 67.3744 97.7946 67.155 97.6374C66.9513 97.4802 66.8494 97.1972 66.8494 96.7884ZM75.5396 86.8131C75.4926 86.766 75.4691 86.7109 75.4691 86.648C75.4691 86.4908 75.6415 86.3651 75.9862 86.2707C76.331 86.1607 76.8089 86.1057 77.42 86.1057C77.9685 86.1057 78.3367 86.2629 78.5248 86.5773C78.7128 86.876 78.8303 87.269 78.8774 87.7564C78.846 87.8822 78.8147 88.0551 78.7833 88.2752L78.6658 88.8412C79.1202 88.3067 79.7941 87.7879 80.6873 87.2848C81.5805 86.766 82.2778 86.5066 82.7792 86.5066C83.5627 86.5066 84.1034 86.648 84.4011 86.931C84.7145 87.1983 84.8947 87.7171 84.9417 88.4875C85.5215 87.9372 86.1875 87.4734 86.9397 87.0961C87.6918 86.7031 88.35 86.5066 88.9141 86.5066C89.5096 86.5066 90.058 86.6323 90.5595 86.8839C91.0609 87.1197 91.3116 87.5049 91.3116 88.0394C91.3116 88.1809 91.3038 88.2909 91.2881 88.3695C91.2411 88.6211 91.1471 88.9748 91.0061 89.4308C90.8807 89.871 90.7867 90.1932 90.724 90.3976C90.3322 91.6711 90.0267 92.748 89.8073 93.6284C89.6036 94.4931 89.4782 95.342 89.4312 96.1753L89.7603 97.3308C89.5722 97.6924 89.3059 97.9754 88.9611 98.1798C88.632 98.3999 88.1463 98.5099 87.5038 98.5099C87.1277 98.5099 86.8535 98.3842 86.6811 98.1326C86.5087 97.8811 86.4225 97.5666 86.4225 97.1893C86.4225 97.1107 86.4304 97.0242 86.446 96.9299C86.4617 96.8356 86.4696 96.7491 86.4696 96.6705C86.5009 95.7901 86.6263 94.9018 86.8456 94.0057C87.0807 93.0939 87.3784 92.072 87.7388 90.94C88.0679 89.9496 88.2324 89.3443 88.2324 89.1242C88.2324 89.0299 88.2168 88.9355 88.1854 88.8412C88.1698 88.7311 88.1463 88.6761 88.1149 88.6761C87.7545 88.6761 87.159 88.8491 86.3285 89.1949C85.5137 89.5408 84.9652 89.8867 84.6832 90.2326C84.3854 91.1916 83.8918 93.1882 83.2023 96.2225L83.0613 96.8828C82.9829 97.2915 82.9046 97.5745 82.8262 97.7317C82.7636 97.8889 82.6304 98.0068 82.4267 98.0854C82.2229 98.1641 81.8939 98.2034 81.4394 98.2034C80.3582 98.2034 79.8176 97.9833 79.8176 97.5431C79.9429 97.1972 80.2877 95.8687 80.8518 93.5577C81.1965 92.127 81.5883 90.547 82.0271 88.8176C81.933 88.8648 81.7607 88.9355 81.5099 89.0299C80.7578 89.3286 80.0996 89.6351 79.5355 89.9496C78.9871 90.264 78.5405 90.6334 78.1957 91.0579L77.5846 93.5577C77.4906 93.935 77.4044 94.2887 77.326 94.6189C77.2477 94.9333 77.1771 95.2006 77.1145 95.4207C77.0361 95.6879 76.9813 96.0495 76.9499 96.5054C76.9186 96.8199 76.8716 97.0478 76.8089 97.1893C76.7619 97.3308 76.6287 97.4487 76.4093 97.5431C76.2056 97.6217 75.8765 97.661 75.4221 97.661C74.905 97.661 74.5132 97.6059 74.2468 97.4959C73.9804 97.3858 73.8472 97.15 73.8472 96.7884C73.8472 96.6155 74.0431 95.6958 74.4349 94.0293C74.8423 92.3628 75.3907 90.1932 76.0802 87.5206L75.5396 86.8131ZM94.9685 83.5824C94.9685 83.095 95.1173 82.6626 95.4151 82.2853C95.7285 81.908 96.1594 81.7194 96.7078 81.7194C97.2876 81.7194 97.7891 81.9001 98.2122 82.2617C98.6509 82.6233 98.8703 83.0321 98.8703 83.488C98.8703 83.9439 98.6509 84.337 98.2122 84.6671C97.7734 84.9973 97.2641 85.1624 96.6843 85.1624C96.1202 85.1624 95.6893 85.0209 95.3916 84.7379C95.1095 84.4392 94.9685 84.054 94.9685 83.5824ZM97.4365 87.7564C96.606 91.1523 95.9714 93.707 95.5326 95.4207C95.4699 95.6722 95.4386 95.9473 95.4386 96.246L95.4621 96.9063C95.4621 97.1736 95.3759 97.3623 95.2035 97.4723C95.0468 97.5824 94.7021 97.6452 94.1693 97.661C93.6522 97.661 93.2604 97.6059 92.994 97.4959C92.7276 97.3858 92.5944 97.15 92.5944 96.7884C92.5944 96.6155 92.7903 95.6958 93.1821 94.0293C93.5895 92.3628 94.1379 90.1932 94.8274 87.5206L94.2868 86.8131C94.2398 86.766 94.2163 86.7109 94.2163 86.648C94.2163 86.4908 94.3887 86.3651 94.7334 86.2707C95.0781 86.1607 95.5561 86.1057 96.1672 86.1057C96.7 86.1057 97.0369 86.2629 97.178 86.5773C97.3347 86.876 97.4208 87.269 97.4365 87.7564ZM101.206 86.1528C101.974 85.7598 102.585 85.5633 103.039 85.5633C103.572 85.5633 103.87 85.8384 103.933 86.3886L103.157 89.2893C103.486 88.8333 103.972 88.3853 104.614 87.9451C105.257 87.5049 105.899 87.1433 106.542 86.8603C107.2 86.5773 107.725 86.4358 108.117 86.4358C108.947 86.4358 109.55 86.593 109.927 86.9074C110.303 87.2062 110.491 87.6857 110.491 88.346C110.334 89.2264 110.099 90.2876 109.785 91.5296C109.472 92.7559 109.276 93.5341 109.198 93.8642C108.853 95.1534 108.61 96.1203 108.469 96.7648C108.375 97.1579 108.281 97.433 108.187 97.5902C108.109 97.7317 107.96 97.8339 107.741 97.8968C107.537 97.9597 107.176 97.9911 106.659 97.9911C106.377 97.9911 106.111 97.944 105.86 97.8496C105.625 97.7553 105.508 97.5981 105.508 97.378C105.555 96.8592 105.711 96.0652 105.978 94.9962C106.26 93.9114 106.636 92.5122 107.106 90.7985C107.419 89.7295 107.576 89.1478 107.576 89.0534C107.576 88.8333 107.451 88.7233 107.2 88.7233C106.839 88.7233 106.299 88.9748 105.578 89.4779C104.857 89.9653 104.113 90.7907 103.345 91.9541C102.577 93.1017 101.974 94.6031 101.535 96.4583C101.504 96.5526 101.465 96.7255 101.418 96.9771C101.371 97.2286 101.245 97.4094 101.042 97.5195C100.838 97.6138 100.509 97.661 100.054 97.661C99.5372 97.661 99.1533 97.6059 98.9026 97.4959C98.6675 97.3858 98.55 97.15 98.55 96.7884L98.8085 95.7744C99.7331 92.1427 100.532 88.9355 101.206 86.1528ZM113.477 98.3684C113.039 98.3684 112.655 98.2348 112.326 97.9675C112.012 97.7003 111.855 97.3858 111.855 97.0242C111.855 96.4897 112.083 96.0259 112.537 95.6329C112.991 95.2399 113.485 95.0433 114.018 95.0433C114.488 95.0433 114.872 95.1927 115.17 95.4914C115.483 95.7901 115.64 96.1438 115.64 96.5526C115.64 97.04 115.42 97.4644 114.982 97.826C114.543 98.1876 114.041 98.3684 113.477 98.3684ZM122.121 80.045C122.231 79.5419 122.411 79.1725 122.662 78.9366C122.928 78.6851 123.218 78.5593 123.532 78.5593C123.908 78.5593 124.245 78.693 124.542 78.9602C124.856 79.2275 125.02 79.5419 125.036 79.9035C125.036 79.9978 125.02 80.1236 124.989 80.2808L120.852 97.1186C120.617 97.7789 120.296 98.109 119.888 98.109C119.559 98.109 119.262 97.9047 118.995 97.4959C118.744 97.0871 118.619 96.6233 118.619 96.1045C118.619 95.9002 118.643 95.6958 118.69 95.4914L122.121 80.045ZM129.741 97.826C128.362 97.826 127.288 97.3544 126.521 96.4111C125.753 95.4678 125.369 94.2651 125.369 92.803C125.369 91.5767 125.627 90.4527 126.145 89.4308C126.677 88.4089 127.414 87.6071 128.354 87.0254C129.31 86.4279 130.399 86.1292 131.621 86.1292C132.985 86.1292 133.901 86.2471 134.371 86.483C134.512 86.5459 134.638 86.648 134.747 86.7895C134.857 86.9153 134.912 87.0411 134.912 87.1669C134.912 87.3241 134.873 87.4892 134.794 87.6621C134.732 87.835 134.63 87.9687 134.489 88.063C134.849 88.0944 135.155 88.2752 135.406 88.6054C135.656 88.9198 135.844 89.2893 135.97 89.7137C136.095 90.1382 136.158 90.5077 136.158 90.8221C136.158 91.9383 135.884 93.0388 135.335 94.1236C134.802 95.2084 134.05 96.0967 133.079 96.7884C132.107 97.4802 130.994 97.826 129.741 97.826ZM130.093 95.8687C130.595 95.8687 131.104 95.625 131.621 95.1377C132.154 94.6346 132.593 93.9743 132.938 93.1568C133.282 92.3392 133.455 91.4824 133.455 90.5863C133.455 90.4134 133.392 90.2561 133.267 90.1146C133.157 89.9731 133 89.8238 132.797 89.6666C132.687 89.588 132.585 89.5094 132.491 89.4308C132.413 89.3364 132.373 89.25 132.373 89.1713C132.373 89.1085 132.389 89.022 132.42 88.9119C132.467 88.8019 132.491 88.7233 132.491 88.6761C132.491 88.4403 132.201 88.3224 131.621 88.3224C130.979 88.3224 130.383 88.5818 129.835 89.1006C129.302 89.6194 128.879 90.2797 128.566 91.0815C128.268 91.8833 128.119 92.6694 128.119 93.4397C128.119 93.8957 128.221 94.3123 128.425 94.6896C128.628 95.0512 128.879 95.342 129.177 95.5621C129.49 95.7665 129.796 95.8687 130.093 95.8687ZM139.726 102.943C139.005 102.943 138.324 102.786 137.681 102.472C137.054 102.157 136.529 101.749 136.106 101.245C135.668 100.758 135.354 100.263 135.166 99.7598C135.182 99.4768 135.323 99.1938 135.589 98.9108C135.84 98.6436 136.287 98.5099 136.929 98.5099C137.133 98.5099 137.305 98.5885 137.446 98.7458C137.603 98.903 137.775 99.1545 137.963 99.5004C138.214 99.972 138.473 100.334 138.739 100.585C139.021 100.852 139.405 100.986 139.891 100.986C140.439 100.986 140.964 100.766 141.466 100.326C141.983 99.9013 142.421 99.3196 142.782 98.5807C143.158 97.8418 143.416 97.0242 143.558 96.1281C143.213 96.5998 142.813 96.9614 142.359 97.2129C141.92 97.4644 141.505 97.5902 141.113 97.5902C139.859 97.5902 138.864 97.3151 138.128 96.7648C137.407 96.1989 137.047 95.2006 137.047 93.7699C137.047 92.4807 137.399 91.278 138.104 90.1618C138.825 89.0456 139.781 88.1573 140.972 87.497C142.163 86.8367 143.44 86.5066 144.803 86.5066C145.696 86.5066 146.355 86.6874 146.778 87.0489C147.216 87.4105 147.483 87.8665 147.577 88.4167C147.843 88.5425 147.984 88.6683 148 88.794C148 88.8412 147.969 89.0063 147.906 89.2893C147.608 90.5784 146.981 93.1253 146.026 96.9299L145.767 97.9675C145.375 99.4925 144.623 100.703 143.51 101.599C142.414 102.495 141.152 102.943 139.726 102.943ZM145.038 88.9355C144.913 88.7154 144.788 88.5739 144.662 88.511C144.553 88.4482 144.38 88.4167 144.145 88.4167C143.409 88.4167 142.696 88.6604 142.006 89.1478C141.317 89.6194 140.76 90.2404 140.337 91.0108C139.914 91.7654 139.703 92.5436 139.703 93.3454C139.703 93.9271 139.805 94.4302 140.008 94.8547C140.228 95.2792 140.572 95.5228 141.042 95.5857C141.669 95.4757 142.257 95.1927 142.805 94.7368C143.369 94.2808 143.753 93.6913 143.957 92.9681L145.038 88.9355Z" fill="white"/>
<mask id="mask0_27_32" style="mask-type:alpha" maskUnits="userSpaceOnUse" x="75" y="18" width="52" height="52">
<path d="M116.318 18H84.9779C79.5689 18 75.184 22.3992 75.184 27.8259V59.269C75.184 64.6957 79.5689 69.0949 84.9779 69.0949H116.318C121.727 69.0949 126.112 64.6957 126.112 59.269V27.8259C126.112 22.3992 121.727 18 116.318 18Z" fill="white"/>
</mask>
<g mask="url(#mask0_27_32)">
<path d="M116.318 18H84.9779C79.5689 18 75.184 22.3992 75.184 27.8259V59.269C75.184 64.6957 79.5689 69.0949 84.9779 69.0949H116.318C121.727 69.0949 126.112 64.6957 126.112 59.269V27.8259C126.112 22.3992 121.727 18 116.318 18Z" fill="white"/>
<path d="M120.258 18H81.0378C77.8049 18 75.184 20.6294 75.184 23.873V63.222C75.184 66.4655 77.8049 69.0949 81.0378 69.0949H120.258C123.491 69.0949 126.112 66.4655 126.112 63.222V23.873C126.112 20.6294 123.491 18 120.258 18Z" fill="#BB86FC"/>
<path d="M98.3744 56.6348C103.849 56.6348 106.373 52.6882 106.373 47.8864V31.6722H100.505V47.426C100.505 50.6162 99.489 51.5699 97.5876 51.5699C96.4076 51.5699 95.1619 50.8135 94.3095 49.1362L90.343 52.1291C92.0804 55.1548 94.5718 56.6348 98.3744 56.6348Z" fill="white"/>
</g>
</svg>
