<svg width="192" height="192" viewBox="0 0 192 192" fill="none" xmlns="http://www.w3.org/2000/svg">
<g clip-path="url(#clip0_3_24)">
<path d="M169.931 0H22.069C9.88061 0 0 9.88061 0 22.069V169.931C0 182.119 9.88061 192 22.069 192H169.931C182.119 192 192 182.119 192 169.931V22.069C192 9.88061 182.119 0 169.931 0Z" fill="#BB86FC"/>
<path d="M87.4284 145.178C108.067 145.178 117.583 130.348 117.583 112.304V51.3765H95.4615V110.574C95.4615 122.562 91.6303 126.146 84.4623 126.146C80.0132 126.146 75.317 123.304 72.1037 117.001L57.1498 128.247C63.6998 139.617 73.0924 145.178 87.4284 145.178Z" fill="white"/>
</g>
<defs>
<clipPath id="clip0_3_24">
<rect width="192" height="192" rx="10" fill="white"/>
</clipPath>
</defs>
</svg>
